<svg width="400.000000" height="400.000000" viewBox="0 0 400 400" fill="none" xmlns="http://www.w3.org/2000/svg" xmlns:xlink="http://www.w3.org/1999/xlink">
	<desc>
			Created with Pixso.
	</desc>
	<defs>
		<clipPath id="clip12_8">
			<rect id="画板 1" width="400.000000" height="400.000000" fill="white" fill-opacity="0"/>
		</clipPath>
	</defs>
	<rect id="画板 1" width="400.000000" height="400.000000" fill="#FFFFFF" fill-opacity="0"/>
	<g clip-path="url(#clip12_8)">
		<path id="直线 1" d="M255.57 169.384L195.57 169.384" stroke="#5A5F66" stroke-opacity="1.000000" stroke-width="12.000000" stroke-linecap="round"/>
		<path id="Vector" d="M298.444 185.662C298.265 187.175 298.056 188.682 297.818 190.184C296.864 196.208 295.438 202.139 293.559 207.922C289.812 219.453 284.261 230.398 277.045 240.328C262.615 260.188 242.268 274.97 218.92 282.556C195.572 290.141 170.422 290.14 147.074 282.554C123.727 274.967 103.38 260.184 88.9507 240.323C74.5213 220.462 66.7498 196.543 66.75 171.993C66.7502 147.444 74.522 123.525 88.9517 103.664C103.381 83.8036 123.728 69.0207 147.076 61.4343C152.894 59.5436 158.825 58.1241 164.812 57.1758C170.836 56.2216 176.917 55.7444 182.998 55.7443C186.041 55.7443 189.084 55.8637 192.12 56.1025" stroke="#496989" stroke-opacity="1.000000" stroke-width="10.000000" stroke-linejoin="round" stroke-linecap="round"/>
		<path id="Vector" d="M144 97L194 132L144 167" stroke="#5A5F66" stroke-opacity="1.000000" stroke-width="12.000000" stroke-linejoin="round" stroke-linecap="round" stroke-dasharray="0 0"/>
		<path id="CYHooo" d="M155.472 236.79L155.947 236.79Q156.087 236.755 156.245 236.737Q156.412 236.72 156.808 236.465Q157.097 236.008 157.219 235.51Q157.309 235.146 157.309 234.76Q157.309 233.837 157.388 233.151L157.344 225.373Q164.551 224.767 166.959 224.696L170.844 224.696L172.356 224.477Q172.321 226.568 172.268 229.354Q172.215 232.141 171.82 234.593L171.89 235.639Q171.975 235.943 172.154 236.174Q172.441 236.541 172.971 236.72Q173.706 236.72 174.275 236.412Q174.291 236.404 174.307 236.395Q174.948 234.092 175.063 231.35Q175.239 226.964 175.239 223.36Q175.133 221.989 175.115 220.662Q175.098 219.326 174.984 218.104L174.913 213.78Q174.984 212.989 174.984 212.022Q174.772 211.417 174.348 211.153Q174.138 211.023 173.876 210.977Q172.709 210.977 172.335 211.521Q172.258 211.633 172.215 211.768Q172.18 211.803 172.145 211.987Q172.11 212.163 172.039 212.418Q172.11 213.859 172.11 218.175Q172.285 220.117 172.285 221.629L170.774 221.813L166.959 221.813Q164.621 221.954 162.319 222.068Q160.016 222.174 157.819 222.499L157.309 222.499L157.168 218.896L157.168 214.325L156.948 211.873Q156.831 211.495 156.588 211.231Q156.324 210.943 155.911 210.792Q155.076 210.792 154.575 211.196L154.074 212.093L154.285 214.396L154.285 218.896Q154.47 221.093 154.575 226.059Q154.54 233.081 154.4 234.408L154.435 235.814Q154.936 236.605 155.472 236.79ZM139.021 236.676L139.777 236.676Q140.235 236.493 140.525 236.162Q140.736 235.922 140.858 235.604L140.752 227.14Q142.73 223.501 145.27 219.959Q147.81 216.408 150.508 212.849L150.508 212.022Q150.298 211.459 149.892 211.187Q149.671 211.039 149.392 210.977L148.671 210.977Q145.718 214.29 143.345 217.727Q140.972 221.163 138.986 224.116Q137.694 222.068 135.839 219.695Q133.985 217.313 132.543 214.58L131.462 212.664Q130.856 211.697 129.845 210.906L128.905 210.906Q128.114 211.442 127.903 212.093Q129.091 214.558 130.506 216.885Q131.488 218.499 132.579 220.047Q135.242 223.826 137.87 227.324Q138.019 235.604 138.054 235.674Q138.097 235.808 138.164 235.929Q138.42 236.396 139.021 236.676ZM111.409 236.896L111.735 236.896Q112.134 236.896 112.531 236.876Q116.333 236.691 120.049 234.733Q123.576 233.082 125.305 230.31Q125.537 229.939 125.736 229.548L125.736 228.757Q125.56 228.221 124.698 227.72L123.907 227.72Q123.152 228.115 122.809 228.678Q122.466 229.231 122.246 229.697Q120.004 231.678 117.39 232.776Q115.261 233.67 112.886 233.978Q109.836 233.978 107.392 232.761Q106.639 232.385 105.943 231.895Q105.425 231.412 105.044 230.839Q104.653 230.254 104.405 229.574Q103.921 228.221 103.561 226.885L103.526 225.804Q103.526 222.413 104.907 219.735Q105.99 217.638 107.92 215.978Q109.142 214.29 112.13 213.859L115.408 213.859Q119.593 214.416 120.201 216.195Q120.295 216.467 120.304 216.769Q120.374 218.755 120.84 219.221Q121.153 219.528 121.523 219.632Q121.714 219.687 121.921 219.687Q122.501 219.581 122.862 219.361Q123.221 218.807 123.34 218.205Q123.398 217.91 123.398 217.604Q123.398 215.222 122.466 214.105Q122.035 213.569 120.699 212.708Q119.948 212.075 119.081 211.764Q118.66 211.614 118.212 211.539Q116.85 211.302 115.584 210.977L111.919 210.977Q110.768 211.231 109.537 211.486Q109.438 211.506 109.339 211.53Q108.228 211.8 107.235 212.559Q106.697 213.074 106.181 213.61Q104.276 215.588 102.664 217.85Q101.967 218.829 101.529 219.912Q100.792 221.738 100.792 223.861L100.827 224.582L100.792 225.733Q100.792 229.242 102.313 231.871Q102.899 232.884 103.71 233.767Q106.549 236.28 111.409 236.896ZM185.043 236.41Q185.979 236.677 186.98 236.72Q188.453 236.72 189.792 236.295Q191.623 235.714 193.202 234.338Q194.28 233.577 194.827 232.538Q195.158 231.907 195.294 231.174Q195.795 228.651 195.795 226.885Q195.795 224.559 194.773 222.842Q194.373 222.172 193.818 221.594Q192.942 220.592 191.839 220.057Q191.714 219.996 191.585 219.941Q189.353 219.001 188.738 219.001Q186.272 219.001 184.196 219.9Q183.001 220.418 181.935 221.233Q181.558 221.547 181.224 221.901Q179.293 223.95 178.806 227.359Q178.806 230.975 180.52 233.359Q180.614 233.49 180.713 233.617Q182.673 235.734 185.043 236.41ZM204.231 236.41Q205.167 236.677 206.168 236.72Q207.641 236.72 208.98 236.295Q210.811 235.714 212.39 234.338Q213.468 233.577 214.015 232.538Q214.346 231.907 214.482 231.174Q214.983 228.651 214.983 226.885Q214.983 224.559 213.961 222.842Q213.561 222.172 213.006 221.594Q212.13 220.592 211.027 220.057Q210.902 219.996 210.773 219.941Q208.541 219.001 207.926 219.001Q205.46 219.001 203.384 219.9Q202.189 220.418 201.123 221.233Q200.746 221.547 200.412 221.901Q198.481 223.95 197.994 227.359Q197.994 230.975 199.708 233.359Q199.802 233.49 199.901 233.617Q201.861 235.734 204.231 236.41ZM223.419 236.41Q224.355 236.677 225.356 236.72Q226.829 236.72 228.168 236.295Q229.999 235.714 231.578 234.338Q232.656 233.577 233.203 232.538Q233.534 231.907 233.67 231.174Q234.171 228.651 234.171 226.885Q234.171 224.559 233.149 222.842Q232.749 222.172 232.194 221.594Q231.318 220.592 230.215 220.057Q230.09 219.996 229.961 219.941Q227.729 219.001 227.114 219.001Q224.648 219.001 222.572 219.9Q221.377 220.418 220.311 221.233Q219.934 221.547 219.6 221.901Q217.669 223.95 217.182 227.359Q217.182 230.975 218.896 233.359Q218.99 233.49 219.089 233.617Q221.049 235.734 223.419 236.41ZM187.992 233.777Q187.842 233.81 187.692 233.837Q186.204 233.837 184.975 233.273Q184.214 232.925 183.552 232.36Q182.923 231.817 182.506 231.144Q181.68 229.811 181.68 227.966Q181.68 227.245 182.225 225.593Q182.36 225.175 182.572 224.801Q183.825 222.595 187.771 221.919Q187.829 221.919 187.886 221.92Q189.586 221.958 191.26 223.105Q192.043 223.894 192.487 224.842Q192.735 225.373 192.877 225.953Q192.877 227.43 192.807 228.713Q192.789 229.028 192.748 229.34Q192.621 230.29 192.271 231.209Q191.401 232.431 189.713 233.151Q188.878 233.58 187.992 233.777ZM207.18 233.777Q207.03 233.81 206.88 233.837Q205.392 233.837 204.163 233.273Q203.402 232.925 202.74 232.36Q202.111 231.817 201.694 231.144Q200.868 229.811 200.868 227.966Q200.868 227.245 201.413 225.593Q201.548 225.175 201.76 224.801Q203.013 222.595 206.959 221.919Q207.017 221.919 207.074 221.92Q208.774 221.958 210.448 223.105Q211.231 223.894 211.675 224.842Q211.923 225.373 212.065 225.953Q212.065 227.43 211.995 228.713Q211.977 229.028 211.936 229.34Q211.809 230.29 211.459 231.209Q210.589 232.431 208.901 233.151Q208.066 233.58 207.18 233.777ZM226.368 233.777Q226.218 233.81 226.068 233.837Q224.58 233.837 223.351 233.273Q222.59 232.925 221.928 232.36Q221.299 231.817 220.882 231.144Q220.056 229.811 220.056 227.966Q220.056 227.245 220.601 225.593Q220.736 225.175 220.948 224.801Q222.201 222.595 226.147 221.919Q226.205 221.919 226.262 221.92Q227.962 221.958 229.636 223.105Q230.419 223.894 230.863 224.842Q231.111 225.373 231.253 225.953Q231.253 227.43 231.183 228.713Q231.165 229.028 231.124 229.34Q230.997 230.29 230.647 231.209Q229.777 232.431 228.089 233.151Q227.254 233.58 226.368 233.777Z" fill="#496989" fill-opacity="1.000000" fill-rule="evenodd"/>
		<path id="Vector" d="M199 242.719C196.342 242.719 195 243.18 195 243.75C195 244.32 196.342 244.781 199 244.781L242.188 244.781C244.845 244.781 247 244.32 247 243.75C247 243.18 244.845 242.719 242.188 242.719L199 242.719ZM181.812 250.719C179.155 250.719 177 251.18 177 251.75C177 252.32 179.155 252.781 181.812 252.781L242.188 252.781C244.845 252.781 247 252.32 247 251.75C247 251.18 244.845 250.719 242.188 250.719L181.812 250.719Z" fill="#496989" fill-opacity="1.000000" fill-rule="evenodd"/>
		<path id="Vector" d="M245.5 194C239.702 194 235 198.823 235 204.767C235 209.525 238.009 213.556 242.181 214.981C242.24 214.994 242.299 215 242.359 215C242.748 215 242.898 214.714 242.898 214.466C242.898 214.208 242.889 213.533 242.884 212.633C242.537 212.714 242.182 212.757 241.825 212.759C239.805 212.759 239.345 211.189 239.345 211.189C238.867 209.947 238.178 209.614 238.178 209.614C237.264 208.972 238.173 208.953 238.244 208.953L238.248 208.953C239.303 209.047 239.856 210.069 239.856 210.069C240.381 210.988 241.084 211.245 241.712 211.245C242.128 211.237 242.537 211.141 242.913 210.964C243.006 210.27 243.278 209.797 243.578 209.525C241.248 209.253 238.797 208.33 238.797 204.205C238.797 203.028 239.205 202.067 239.875 201.317C239.767 201.045 239.406 199.948 239.978 198.467C240.055 198.449 240.134 198.441 240.212 198.444C240.592 198.444 241.45 198.589 242.866 199.573C244.586 199.092 246.405 199.092 248.125 199.573C249.541 198.589 250.398 198.444 250.778 198.444C250.857 198.441 250.936 198.449 251.012 198.467C251.584 199.948 251.223 201.045 251.116 201.317C251.786 202.072 252.194 203.033 252.194 204.205C252.194 208.339 249.738 209.248 247.398 209.516C247.773 209.848 248.111 210.505 248.111 211.508C248.111 212.947 248.097 214.109 248.097 214.461C248.097 214.714 248.242 215 248.631 215C248.694 215 248.757 214.994 248.819 214.981C252.995 213.556 256 209.52 256 204.767C256 198.823 251.298 194 245.5 194Z" fill="#5A5F66" fill-opacity="1.000000" fill-rule="nonzero"/>
		<path id="Vector" d="M235.37 200.287Q234.5 202.343 234.5 204.767Q234.5 208.955 236.501 211.666Q238.379 214.211 242.02 215.454Q242.033 215.459 242.047 215.463Q242.061 215.467 242.075 215.47Q242.146 215.485 242.218 215.493Q242.289 215.5 242.361 215.5Q242.881 215.5 243.141 215.24Q243.398 214.982 243.398 214.466L243.384 212.629Q243.383 212.422 243.235 212.277Q243.088 212.131 242.881 212.133Q242.853 212.133 242.825 212.136Q242.797 212.14 242.77 212.146Q242.536 212.201 242.299 212.229Q242.062 212.258 241.821 212.259Q240.71 212.259 240.189 211.705Q239.94 211.44 239.825 211.049Q239.822 211.039 239.819 211.029Q239.816 211.019 239.812 211.009Q239.758 210.869 239.7 210.738Q240.113 211.275 240.658 211.526Q241.135 211.745 241.712 211.745Q242.144 211.737 242.548 211.628Q242.844 211.549 243.126 211.416Q243.241 211.362 243.316 211.26Q243.391 211.157 243.408 211.031Q243.512 210.259 243.914 209.896Q244.067 209.756 244.078 209.55Q244.088 209.343 243.949 209.189Q243.888 209.122 243.807 209.08Q243.726 209.039 243.636 209.028Q241.437 208.772 240.353 207.537Q239.297 206.334 239.297 204.205Q239.297 203.333 239.622 202.607Q239.853 202.092 240.248 201.65Q240.342 201.544 240.367 201.405Q240.392 201.265 240.34 201.133Q240.301 201.036 240.271 200.936Q239.992 200.039 240.338 198.949Q241.19 199.017 242.58 199.984Q242.672 200.048 242.782 200.066Q242.893 200.085 243 200.055Q244.248 199.706 245.495 199.706Q246.743 199.706 247.99 200.055Q248.098 200.085 248.208 200.066Q248.319 200.048 248.41 199.984Q249.801 199.017 250.652 198.949Q250.998 200.039 250.72 200.936Q250.689 201.036 250.651 201.133Q250.599 201.264 250.623 201.404Q250.648 201.543 250.742 201.649Q251.153 202.112 251.387 202.652Q251.694 203.362 251.694 204.205Q251.694 206.328 250.641 207.527Q249.553 208.766 247.342 209.019Q247.136 209.042 247.007 209.204Q246.878 209.367 246.902 209.572Q246.912 209.664 246.955 209.746Q246.997 209.828 247.067 209.89Q247.611 210.373 247.611 211.508L247.597 214.459Q247.597 214.983 247.859 215.243Q248.118 215.5 248.631 215.5Q248.654 215.5 248.676 215.499Q248.798 215.496 248.92 215.471Q248.935 215.468 248.95 215.464Q248.965 215.46 248.98 215.454Q252.618 214.213 254.496 211.671Q256.5 208.96 256.5 204.767Q256.5 202.343 255.63 200.287Q254.827 198.39 253.282 196.806Q251.604 195.084 249.563 194.259Q247.685 193.5 245.5 193.5Q243.315 193.5 241.437 194.259Q239.396 195.084 237.718 196.806Q236.173 198.39 235.37 200.287ZM251.012 198.467C251.584 199.948 251.223 201.045 251.116 201.317C251.786 202.072 252.194 203.033 252.194 204.205C252.194 207.983 250.143 209.068 248.004 209.431C247.803 209.465 247.6 209.493 247.398 209.516C247.527 209.63 247.651 209.782 247.759 209.973C247.965 210.339 248.111 210.849 248.111 211.508C248.111 212.947 248.097 214.109 248.097 214.461C248.097 214.714 248.242 215 248.631 215C248.694 215 248.757 214.994 248.819 214.981C252.995 213.556 256 209.52 256 204.767C256 198.823 251.298 194 245.5 194C239.702 194 235 198.823 235 204.767C235 209.525 238.009 213.556 242.181 214.981C242.24 214.994 242.299 215 242.359 215C242.748 215 242.898 214.714 242.898 214.466C242.898 214.259 242.892 213.786 242.888 213.144C242.886 212.984 242.885 212.813 242.884 212.633C242.719 212.671 242.553 212.701 242.385 212.722C242.199 212.746 242.012 212.758 241.825 212.759C239.805 212.759 239.345 211.189 239.345 211.189C238.867 209.947 238.178 209.614 238.178 209.614C237.264 208.972 238.173 208.953 238.244 208.953L238.248 208.953C239.303 209.047 239.856 210.069 239.856 210.069C240.381 210.988 241.084 211.245 241.712 211.245C242.128 211.237 242.537 211.141 242.913 210.964C242.966 210.565 243.079 210.239 243.222 209.983C243.328 209.793 243.451 209.641 243.578 209.525C243.379 209.502 243.178 209.474 242.978 209.439C240.846 209.071 238.797 207.976 238.797 204.205C238.797 203.028 239.205 202.067 239.875 201.317C239.767 201.045 239.406 199.948 239.978 198.467C240.055 198.449 240.134 198.441 240.212 198.444C240.592 198.444 241.45 198.589 242.866 199.573C244.586 199.092 246.405 199.092 248.125 199.573C249.541 198.589 250.398 198.444 250.778 198.444C250.857 198.441 250.936 198.449 251.012 198.467Z" fill="#31363F" fill-opacity="0.500000" fill-rule="evenodd"/>
	</g>
</svg>
