<svg width="408.000000" height="408.000000" viewBox="0 0 408 408" fill="none" xmlns="http://www.w3.org/2000/svg" xmlns:xlink="http://www.w3.org/1999/xlink">
	<desc>
			Created with Pixso.
	</desc>
	<defs>
		<filter id="filter_4_1_dd" x="0.000000" y="0.000000" width="408.000000" height="408.000000" filterUnits="userSpaceOnUse" color-interpolation-filters="sRGB">
			<feFlood flood-opacity="0" result="BackgroundImageFix"/>
			<feColorMatrix in="SourceAlpha" type="matrix" values="0 0 0 0 0 0 0 0 0 0 0 0 0 0 0 0 0 0 127 0" result="hardAlpha"/>
			<feOffset dx="0" dy="4"/>
			<feGaussianBlur stdDeviation="1.33333"/>
			<feComposite in2="hardAlpha" operator="out" k2="-1" k3="1"/>
			<feColorMatrix type="matrix" values="0 0 0 0 0.3451 0 0 0 0 0.63922 0 0 0 0 0.6 0 0 0 0.5 0"/>
			<feBlend mode="normal" in2="BackgroundImageFix" result="effect_dropShadow_1"/>
			<feBlend mode="normal" in="SourceGraphic" in2="effect_dropShadow_1" result="shape"/>
		</filter>
		<filter id="filter_4_37_dd" x="194.570007" y="168.384048" width="76.000000" height="16.000000" filterUnits="userSpaceOnUse" color-interpolation-filters="sRGB">
			<feFlood flood-opacity="0" result="BackgroundImageFix"/>
			<feColorMatrix in="SourceAlpha" type="matrix" values="0 0 0 0 0 0 0 0 0 0 0 0 0 0 0 0 0 0 127 0" result="hardAlpha"/>
			<feOffset dx="0" dy="4"/>
			<feGaussianBlur stdDeviation="1.33333"/>
			<feComposite in2="hardAlpha" operator="out" k2="-1" k3="1"/>
			<feColorMatrix type="matrix" values="0 0 0 0 0.3451 0 0 0 0 0.63922 0 0 0 0 0.6 0 0 0 0.2 0"/>
			<feBlend mode="normal" in2="BackgroundImageFix" result="effect_dropShadow_1"/>
			<feBlend mode="normal" in="SourceGraphic" in2="effect_dropShadow_1" result="shape"/>
		</filter>
		<filter id="filter_4_18_dd" x="61.749992" y="50.744293" width="249.695740" height="250.652679" filterUnits="userSpaceOnUse" color-interpolation-filters="sRGB">
			<feFlood flood-opacity="0" result="BackgroundImageFix"/>
			<feColorMatrix in="SourceAlpha" type="matrix" values="0 0 0 0 0 0 0 0 0 0 0 0 0 0 0 0 0 0 127 0" result="hardAlpha"/>
			<feOffset dx="0" dy="4"/>
			<feGaussianBlur stdDeviation="1.33333"/>
			<feComposite in2="hardAlpha" operator="out" k2="-1" k3="1"/>
			<feColorMatrix type="matrix" values="0 0 0 0 0.3451 0 0 0 0 0.63922 0 0 0 0 0.6 0 0 0 0.2 0"/>
			<feBlend mode="normal" in2="BackgroundImageFix" result="effect_dropShadow_1"/>
			<feBlend mode="normal" in="SourceGraphic" in2="effect_dropShadow_1" result="shape"/>
		</filter>
		<filter id="filter_4_35_dd" x="134.981216" y="96.981216" width="68.026413" height="88.037567" filterUnits="userSpaceOnUse" color-interpolation-filters="sRGB">
			<feFlood flood-opacity="0" result="BackgroundImageFix"/>
			<feColorMatrix in="SourceAlpha" type="matrix" values="0 0 0 0 0 0 0 0 0 0 0 0 0 0 0 0 0 0 127 0" result="hardAlpha"/>
			<feOffset dx="0" dy="4"/>
			<feGaussianBlur stdDeviation="1.33333"/>
			<feComposite in2="hardAlpha" operator="out" k2="-1" k3="1"/>
			<feColorMatrix type="matrix" values="0 0 0 0 0.3451 0 0 0 0 0.63922 0 0 0 0 0.6 0 0 0 0.2 0"/>
			<feBlend mode="normal" in2="BackgroundImageFix" result="effect_dropShadow_1"/>
			<feBlend mode="normal" in="SourceGraphic" in2="effect_dropShadow_1" result="shape"/>
		</filter>
		<filter id="filter_4_46_dd" x="100.292206" y="210.291992" width="142.378952" height="35.103516" filterUnits="userSpaceOnUse" color-interpolation-filters="sRGB">
			<feFlood flood-opacity="0" result="BackgroundImageFix"/>
			<feColorMatrix in="SourceAlpha" type="matrix" values="0 0 0 0 0 0 0 0 0 0 0 0 0 0 0 0 0 0 127 0" result="hardAlpha"/>
			<feOffset dx="0" dy="4"/>
			<feGaussianBlur stdDeviation="1.33333"/>
			<feComposite in2="hardAlpha" operator="out" k2="-1" k3="1"/>
			<feColorMatrix type="matrix" values="0 0 0 0 0.3451 0 0 0 0 0.63922 0 0 0 0 0.6 0 0 0 0.2 0"/>
			<feBlend mode="normal" in2="BackgroundImageFix" result="effect_dropShadow_1"/>
			<feBlend mode="normal" in="SourceGraphic" in2="effect_dropShadow_1" result="shape"/>
		</filter>
		<filter id="filter_4_57_dd" x="176.750000" y="242.468765" width="78.500000" height="15.062485" filterUnits="userSpaceOnUse" color-interpolation-filters="sRGB">
			<feFlood flood-opacity="0" result="BackgroundImageFix"/>
			<feColorMatrix in="SourceAlpha" type="matrix" values="0 0 0 0 0 0 0 0 0 0 0 0 0 0 0 0 0 0 127 0" result="hardAlpha"/>
			<feOffset dx="0" dy="4"/>
			<feGaussianBlur stdDeviation="1.33333"/>
			<feComposite in2="hardAlpha" operator="out" k2="-1" k3="1"/>
			<feColorMatrix type="matrix" values="0 0 0 0 0.3451 0 0 0 0 0.63922 0 0 0 0 0.6 0 0 0 0.2 0"/>
			<feBlend mode="normal" in2="BackgroundImageFix" result="effect_dropShadow_1"/>
			<feBlend mode="normal" in="SourceGraphic" in2="effect_dropShadow_1" result="shape"/>
		</filter>
		<filter id="filter_4_79_dd" x="234.250000" y="201.250000" width="29.500000" height="29.500000" filterUnits="userSpaceOnUse" color-interpolation-filters="sRGB">
			<feFlood flood-opacity="0" result="BackgroundImageFix"/>
			<feColorMatrix in="SourceAlpha" type="matrix" values="0 0 0 0 0 0 0 0 0 0 0 0 0 0 0 0 0 0 127 0" result="hardAlpha"/>
			<feOffset dx="0" dy="4"/>
			<feGaussianBlur stdDeviation="1.33333"/>
			<feComposite in2="hardAlpha" operator="out" k2="-1" k3="1"/>
			<feColorMatrix type="matrix" values="0 0 0 0 0.3451 0 0 0 0 0.63922 0 0 0 0 0.6 0 0 0 0.2 0"/>
			<feBlend mode="normal" in2="BackgroundImageFix" result="effect_dropShadow_1"/>
			<feBlend mode="normal" in="SourceGraphic" in2="effect_dropShadow_1" result="shape"/>
		</filter>
		<clipPath id="clip4_1">
			<rect id="画板 1" width="400.000000" height="400.000000" transform="translate(4.000000 0.000000)" fill="white" fill-opacity="0"/>
		</clipPath>
	</defs>
	<g filter="url(#filter_4_1_dd)">
		<rect id="画板 1" width="400.000000" height="400.000000" transform="translate(4.000000 0.000000)" fill="#FFFFFF" fill-opacity="0"/>
		<g clip-path="url(#clip4_1)">
			<g filter="url(#filter_4_37_dd)"/>
			<path id="直线 1" d="M262.57 172.384L202.57 172.384" stroke="#496989" stroke-opacity="1.000000" stroke-width="8.000000" stroke-linecap="round"/>
			<g filter="url(#filter_4_18_dd)"/>
			<path id="Vector" d="M302.444 185.662C302.265 187.175 302.056 188.682 301.818 190.184C300.864 196.208 299.438 202.139 297.559 207.922C293.812 219.453 288.261 230.398 281.045 240.328C266.615 260.188 246.268 274.97 222.92 282.556C199.572 290.141 174.422 290.14 151.074 282.554C127.727 274.967 107.38 260.184 92.9507 240.323C78.5213 220.462 70.7498 196.543 70.75 171.993C70.7502 147.444 78.522 123.525 92.9517 103.664C107.381 83.8036 127.728 69.0207 151.076 61.4343C156.894 59.5436 162.825 58.1241 168.812 57.1758C174.836 56.2216 180.917 55.7444 186.998 55.7443C190.041 55.7443 193.084 55.8637 196.12 56.1025" stroke="#3E5F80" stroke-opacity="1.000000" stroke-width="10.000000" stroke-linejoin="round" stroke-linecap="round"/>
			<g filter="url(#filter_4_35_dd)"/>
			<path id="Vector" d="M144 102L194 137L144 172" stroke="#496989" stroke-opacity="1.000000" stroke-width="10.000000" stroke-linejoin="round" stroke-linecap="round" stroke-dasharray="0 0"/>
			<g filter="url(#filter_4_46_dd)">
				<path id="CYHooo" d="M159.472 236.79L159.947 236.79Q160.087 236.755 160.245 236.737Q160.412 236.72 160.808 236.465Q161.097 236.008 161.219 235.51Q161.309 235.146 161.309 234.76Q161.309 233.837 161.388 233.151L161.344 225.373Q168.551 224.767 170.959 224.696L174.844 224.696L176.356 224.477Q176.321 226.568 176.268 229.354Q176.215 232.141 175.82 234.593L175.89 235.639Q175.975 235.943 176.154 236.174Q176.441 236.541 176.971 236.72Q177.706 236.72 178.275 236.412Q178.291 236.404 178.307 236.395Q178.948 234.092 179.063 231.35Q179.239 226.964 179.239 223.36Q179.133 221.989 179.115 220.662Q179.098 219.326 178.984 218.104L178.913 213.78Q178.984 212.989 178.984 212.022Q178.772 211.417 178.348 211.153Q178.138 211.023 177.876 210.977Q176.709 210.977 176.335 211.521Q176.258 211.633 176.215 211.768Q176.18 211.803 176.145 211.987Q176.11 212.163 176.039 212.418Q176.11 213.859 176.11 218.175Q176.285 220.117 176.285 221.629L174.774 221.813L170.959 221.813Q168.621 221.954 166.319 222.068Q164.016 222.174 161.819 222.499L161.309 222.499L161.168 218.896L161.168 214.325L160.948 211.873Q160.831 211.495 160.588 211.231Q160.324 210.943 159.911 210.792Q159.076 210.792 158.575 211.196L158.074 212.093L158.285 214.396L158.285 218.896Q158.47 221.093 158.575 226.059Q158.54 233.081 158.4 234.408L158.435 235.814Q158.936 236.605 159.472 236.79ZM143.021 236.676L143.777 236.676Q144.235 236.493 144.525 236.162Q144.736 235.922 144.858 235.604L144.752 227.14Q146.73 223.501 149.27 219.959Q151.81 216.408 154.508 212.849L154.508 212.022Q154.298 211.459 153.892 211.187Q153.671 211.039 153.392 210.977L152.671 210.977Q149.718 214.29 147.345 217.727Q144.972 221.163 142.986 224.116Q141.694 222.068 139.839 219.695Q137.985 217.313 136.543 214.58L135.462 212.664Q134.856 211.697 133.845 210.906L132.905 210.906Q132.114 211.442 131.903 212.093Q133.091 214.558 134.506 216.885Q135.488 218.499 136.579 220.047Q139.242 223.826 141.87 227.324Q142.019 235.604 142.054 235.674Q142.097 235.808 142.164 235.929Q142.42 236.396 143.021 236.676ZM115.409 236.896L115.735 236.896Q116.134 236.896 116.531 236.876Q120.333 236.691 124.049 234.733Q127.576 233.082 129.305 230.31Q129.536 229.939 129.736 229.548L129.736 228.757Q129.56 228.221 128.698 227.72L127.907 227.72Q127.152 228.115 126.809 228.678Q126.466 229.231 126.246 229.697Q124.004 231.678 121.39 232.776Q119.261 233.67 116.886 233.978Q113.836 233.978 111.392 232.761Q110.639 232.385 109.943 231.895Q109.425 231.412 109.044 230.839Q108.653 230.254 108.405 229.574Q107.921 228.221 107.561 226.885L107.526 225.804Q107.526 222.413 108.907 219.735Q109.99 217.638 111.92 215.978Q113.142 214.29 116.13 213.859L119.408 213.859Q123.593 214.416 124.201 216.195Q124.295 216.467 124.304 216.769Q124.374 218.755 124.84 219.221Q125.153 219.528 125.523 219.632Q125.714 219.687 125.921 219.687Q126.501 219.581 126.862 219.361Q127.221 218.807 127.34 218.205Q127.398 217.91 127.398 217.604Q127.398 215.222 126.466 214.105Q126.035 213.569 124.699 212.708Q123.948 212.075 123.081 211.764Q122.66 211.614 122.212 211.539Q120.85 211.302 119.584 210.977L115.919 210.977Q114.768 211.231 113.537 211.486Q113.438 211.506 113.339 211.53Q112.228 211.8 111.235 212.559Q110.697 213.074 110.181 213.61Q108.276 215.588 106.664 217.85Q105.967 218.829 105.529 219.912Q104.792 221.738 104.792 223.861L104.827 224.582L104.792 225.733Q104.792 229.242 106.313 231.871Q106.899 232.884 107.71 233.767Q110.549 236.28 115.409 236.896ZM189.043 236.41Q189.979 236.677 190.98 236.72Q192.453 236.72 193.792 236.295Q195.623 235.714 197.202 234.338Q198.28 233.577 198.827 232.538Q199.158 231.907 199.294 231.174Q199.795 228.651 199.795 226.885Q199.795 224.559 198.773 222.842Q198.373 222.172 197.818 221.594Q196.942 220.592 195.839 220.057Q195.714 219.996 195.585 219.941Q193.353 219.001 192.738 219.001Q190.272 219.001 188.196 219.9Q187.001 220.418 185.935 221.233Q185.558 221.547 185.224 221.901Q183.293 223.95 182.806 227.359Q182.806 230.975 184.52 233.359Q184.614 233.49 184.713 233.617Q186.673 235.734 189.043 236.41ZM208.231 236.41Q209.167 236.677 210.168 236.72Q211.641 236.72 212.98 236.295Q214.811 235.714 216.39 234.338Q217.468 233.577 218.015 232.538Q218.346 231.907 218.482 231.174Q218.983 228.651 218.983 226.885Q218.983 224.559 217.961 222.842Q217.561 222.172 217.006 221.594Q216.13 220.592 215.027 220.057Q214.902 219.996 214.773 219.941Q212.541 219.001 211.926 219.001Q209.46 219.001 207.384 219.9Q206.189 220.418 205.123 221.233Q204.746 221.547 204.412 221.901Q202.481 223.95 201.994 227.359Q201.994 230.975 203.708 233.359Q203.802 233.49 203.901 233.617Q205.861 235.734 208.231 236.41ZM227.419 236.41Q228.355 236.677 229.356 236.72Q230.829 236.72 232.168 236.295Q233.999 235.714 235.578 234.338Q236.656 233.577 237.203 232.538Q237.534 231.907 237.67 231.174Q238.171 228.651 238.171 226.885Q238.171 224.559 237.149 222.842Q236.749 222.172 236.194 221.594Q235.318 220.592 234.215 220.057Q234.09 219.996 233.961 219.941Q231.729 219.001 231.114 219.001Q228.648 219.001 226.572 219.9Q225.377 220.418 224.311 221.233Q223.934 221.547 223.6 221.901Q221.669 223.95 221.182 227.359Q221.182 230.975 222.896 233.359Q222.99 233.49 223.089 233.617Q225.049 235.734 227.419 236.41ZM191.992 233.777Q191.842 233.81 191.692 233.837Q190.204 233.837 188.975 233.273Q188.214 232.925 187.552 232.36Q186.923 231.817 186.506 231.144Q185.68 229.811 185.68 227.966Q185.68 227.245 186.225 225.593Q186.36 225.175 186.572 224.801Q187.825 222.595 191.771 221.919Q191.829 221.919 191.886 221.92Q193.586 221.958 195.26 223.105Q196.043 223.894 196.487 224.842Q196.735 225.373 196.877 225.953Q196.877 227.43 196.807 228.713Q196.789 229.028 196.748 229.34Q196.621 230.29 196.271 231.209Q195.401 232.431 193.713 233.151Q192.878 233.58 191.992 233.777ZM211.18 233.777Q211.03 233.81 210.88 233.837Q209.392 233.837 208.163 233.273Q207.402 232.925 206.74 232.36Q206.111 231.817 205.694 231.144Q204.868 229.811 204.868 227.966Q204.868 227.245 205.413 225.593Q205.548 225.175 205.76 224.801Q207.013 222.595 210.959 221.919Q211.017 221.919 211.074 221.92Q212.774 221.958 214.448 223.105Q215.231 223.894 215.675 224.842Q215.923 225.373 216.065 225.953Q216.065 227.43 215.995 228.713Q215.977 229.028 215.936 229.34Q215.809 230.29 215.459 231.209Q214.589 232.431 212.901 233.151Q212.066 233.58 211.18 233.777ZM230.368 233.777Q230.218 233.81 230.068 233.837Q228.58 233.837 227.351 233.273Q226.59 232.925 225.928 232.36Q225.299 231.817 224.882 231.144Q224.056 229.811 224.056 227.966Q224.056 227.245 224.601 225.593Q224.736 225.175 224.948 224.801Q226.201 222.595 230.147 221.919Q230.205 221.919 230.262 221.92Q231.962 221.958 233.636 223.105Q234.419 223.894 234.863 224.842Q235.111 225.373 235.253 225.953Q235.253 227.43 235.183 228.713Q235.165 229.028 235.124 229.34Q234.997 230.29 234.647 231.209Q233.777 232.431 232.089 233.151Q231.254 233.58 230.368 233.777Z" fill="#3E5F80" fill-opacity="1.000000" fill-rule="evenodd"/>
			</g>
			<path id="CYHooo" d="M115.735 236.896L115.409 236.896Q110.549 236.28 107.71 233.767Q104.792 230.594 104.792 225.733L104.827 224.582L104.792 223.861Q104.792 220.478 106.664 217.85Q108.712 214.976 111.235 212.559Q112.316 211.732 113.537 211.486Q114.768 211.231 115.919 210.977L119.584 210.977Q120.85 211.302 122.212 211.539Q123.583 211.768 124.699 212.708Q126.035 213.569 126.466 214.105Q127.398 215.222 127.398 217.604Q127.398 218.535 126.862 219.361Q126.501 219.581 125.921 219.687Q125.315 219.687 124.84 219.221Q124.374 218.755 124.304 216.769Q124.234 214.501 119.408 213.859L116.13 213.859Q113.142 214.29 111.92 215.978Q107.526 219.757 107.526 225.804L107.561 226.885Q107.921 228.221 108.405 229.574Q108.897 230.919 109.943 231.895Q112.896 233.978 116.886 233.978Q122.177 233.292 126.246 229.697Q126.466 229.231 126.809 228.678Q127.152 228.115 127.907 227.72L128.698 227.72Q129.56 228.221 129.736 228.757L129.736 229.548Q128.048 232.861 124.049 234.733Q119.945 236.896 115.735 236.896ZM143.777 236.676L143.021 236.676Q142.265 236.324 142.054 235.674Q142.019 235.604 141.87 227.324Q139.242 223.826 136.579 220.047Q133.915 216.268 131.903 212.093Q132.114 211.442 132.905 210.906L133.845 210.906Q134.856 211.697 135.462 212.664L136.543 214.58Q137.985 217.313 139.839 219.695Q141.694 222.068 142.986 224.116Q144.972 221.163 147.345 217.727Q149.718 214.29 152.671 210.977L153.392 210.977Q154.183 211.152 154.508 212.022L154.508 212.849Q151.81 216.408 149.27 219.959Q146.73 223.501 144.752 227.14L144.858 235.604Q144.568 236.359 143.777 236.676ZM159.947 236.79L159.472 236.79Q158.936 236.605 158.435 235.814L158.4 234.408Q158.54 233.081 158.575 226.059Q158.47 221.093 158.285 218.896L158.285 214.396L158.074 212.093L158.575 211.196Q159.076 210.792 159.911 210.792Q160.702 211.082 160.948 211.873L161.168 214.325L161.168 218.896L161.309 222.499L161.819 222.499Q164.016 222.174 166.319 222.068Q168.621 221.954 170.959 221.813L174.774 221.813L176.285 221.629Q176.285 220.117 176.11 218.175Q176.11 213.859 176.039 212.418Q176.11 212.163 176.145 211.987Q176.18 211.803 176.215 211.768Q176.47 210.977 177.876 210.977Q178.667 211.117 178.984 212.022Q178.984 212.989 178.913 213.78L178.984 218.104Q179.098 219.326 179.115 220.662Q179.133 221.989 179.239 223.36Q179.239 226.964 179.063 231.35Q178.948 234.092 178.307 236.395Q177.727 236.72 176.971 236.72Q176.11 236.43 175.89 235.639L175.82 234.593Q176.215 232.141 176.268 229.354Q176.321 226.568 176.356 224.477L174.844 224.696L170.959 224.696Q168.551 224.767 161.344 225.373L161.388 233.151Q161.309 233.837 161.309 234.76Q161.309 235.674 160.808 236.465Q160.412 236.72 160.245 236.737Q160.087 236.755 159.947 236.79ZM191.692 233.837Q192.738 233.652 193.713 233.151Q195.401 232.431 196.271 231.209Q196.737 229.987 196.807 228.713Q196.877 227.43 196.877 225.953Q196.482 224.336 195.26 223.105Q193.529 221.919 191.771 221.919Q187.156 222.71 186.225 225.593Q185.68 227.245 185.68 227.966Q185.68 230.743 187.552 232.36Q189.283 233.837 191.692 233.837ZM190.98 236.72Q187.447 236.57 184.713 233.617Q182.806 231.174 182.806 227.359Q183.377 223.36 185.935 221.233Q188.853 219.001 192.738 219.001Q193.353 219.001 195.585 219.941Q196.842 220.478 197.818 221.594Q199.795 223.65 199.795 226.885Q199.795 228.651 199.294 231.174Q198.934 233.116 197.202 234.338Q194.469 236.72 190.98 236.72ZM210.88 233.837Q211.926 233.652 212.901 233.151Q214.589 232.431 215.459 231.209Q215.925 229.987 215.995 228.713Q216.065 227.43 216.065 225.953Q215.67 224.336 214.448 223.105Q212.717 221.919 210.959 221.919Q206.344 222.71 205.413 225.593Q204.868 227.245 204.868 227.966Q204.868 230.743 206.74 232.36Q208.471 233.837 210.88 233.837ZM210.168 236.72Q206.635 236.57 203.901 233.617Q201.994 231.174 201.994 227.359Q202.565 223.36 205.123 221.233Q208.041 219.001 211.926 219.001Q212.541 219.001 214.773 219.941Q216.03 220.478 217.006 221.594Q218.983 223.65 218.983 226.885Q218.983 228.651 218.482 231.174Q218.122 233.116 216.39 234.338Q213.657 236.72 210.168 236.72ZM230.068 233.837Q231.114 233.652 232.089 233.151Q233.777 232.431 234.647 231.209Q235.113 229.987 235.183 228.713Q235.253 227.43 235.253 225.953Q234.858 224.336 233.636 223.105Q231.905 221.919 230.147 221.919Q225.532 222.71 224.601 225.593Q224.056 227.245 224.056 227.966Q224.056 230.743 225.928 232.36Q227.659 233.837 230.068 233.837ZM229.356 236.72Q225.823 236.57 223.089 233.617Q221.182 231.174 221.182 227.359Q221.753 223.36 224.311 221.233Q227.229 219.001 231.114 219.001Q231.729 219.001 233.961 219.941Q235.218 220.478 236.194 221.594Q238.171 223.65 238.171 226.885Q238.171 228.651 237.67 231.174Q237.31 233.116 235.578 234.338Q232.845 236.72 229.356 236.72Z" stroke="#58A399" stroke-opacity="0.501961" stroke-width="0.500000"/>
			<g filter="url(#filter_4_57_dd)">
				<path id="Vector" d="M203 242.719C200.342 242.719 199 243.18 199 243.75C199 244.32 200.342 244.781 203 244.781L246.188 244.781C248.845 244.781 251 244.32 251 243.75C251 243.18 248.845 242.719 246.188 242.719L203 242.719ZM185.812 247.219C183.155 247.219 181 247.68 181 248.25C181 248.82 183.155 249.281 185.812 249.281L246.188 249.281C248.845 249.281 251 248.82 251 248.25C251 247.68 248.845 247.219 246.188 247.219L185.812 247.219Z" fill="#496989" fill-opacity="1.000000" fill-rule="evenodd"/>
			</g>
			<path id="Vector" d="M181 248.25C181 248.82 183.155 249.281 185.812 249.281L246.188 249.281C248.845 249.281 251 248.82 251 248.25C251 247.68 248.845 247.219 246.188 247.219L185.812 247.219C183.155 247.219 181 247.68 181 248.25ZM199 243.75C199 244.32 200.342 244.781 203 244.781L246.188 244.781C248.845 244.781 251 244.32 251 243.75C251 243.18 248.845 242.719 246.188 242.719L203 242.719C200.342 242.719 199 243.18 199 243.75Z" stroke="#58A399" stroke-opacity="0.500000" stroke-width="0.500000"/>
			<g filter="url(#filter_4_79_dd)">
				<path id="Vector" d="M249 201.5C243.202 201.5 238.5 206.323 238.5 212.267C238.5 217.025 241.509 221.056 245.681 222.481C245.74 222.494 245.799 222.5 245.859 222.5C246.248 222.5 246.398 222.214 246.398 221.966C246.398 221.708 246.389 221.033 246.384 220.133C246.037 220.214 245.682 220.257 245.325 220.259C243.305 220.259 242.845 218.689 242.845 218.689C242.367 217.447 241.678 217.114 241.678 217.114C240.764 216.472 241.673 216.453 241.744 216.453L241.748 216.453C242.803 216.547 243.356 217.569 243.356 217.569C243.881 218.488 244.584 218.745 245.212 218.745C245.628 218.737 246.037 218.641 246.413 218.464C246.506 217.77 246.778 217.297 247.078 217.025C244.748 216.753 242.297 215.83 242.297 211.705C242.297 210.528 242.705 209.567 243.375 208.817C243.267 208.545 242.906 207.448 243.478 205.967C243.555 205.949 243.634 205.941 243.712 205.944C244.092 205.944 244.95 206.089 246.366 207.073C248.086 206.592 249.905 206.592 251.625 207.073C253.041 206.089 253.898 205.944 254.278 205.944C254.357 205.941 254.436 205.949 254.512 205.967C255.084 207.448 254.723 208.545 254.616 208.817C255.286 209.572 255.694 210.533 255.694 211.705C255.694 215.839 253.238 216.748 250.898 217.016C251.273 217.348 251.611 218.005 251.611 219.008C251.611 220.447 251.597 221.609 251.597 221.961C251.597 222.214 251.742 222.5 252.131 222.5C252.194 222.5 252.257 222.494 252.319 222.481C256.495 221.056 259.5 217.02 259.5 212.267C259.5 206.323 254.798 201.5 249 201.5Z" fill="#496989" fill-opacity="1.000000" fill-rule="nonzero"/>
			</g>
			<path id="Vector" d="M238.5 212.267C238.5 217.025 241.509 221.056 245.681 222.481C245.74 222.494 245.799 222.5 245.859 222.5C246.248 222.5 246.398 222.214 246.398 221.966C246.398 221.708 246.389 221.033 246.384 220.133C246.037 220.214 245.682 220.257 245.325 220.259C243.305 220.259 242.845 218.689 242.845 218.689C242.367 217.447 241.678 217.114 241.678 217.114C240.764 216.472 241.673 216.453 241.744 216.453L241.748 216.453C242.803 216.547 243.356 217.569 243.356 217.569C243.881 218.488 244.584 218.745 245.212 218.745C245.628 218.737 246.037 218.641 246.413 218.464C246.506 217.77 246.778 217.297 247.078 217.025C244.748 216.753 242.297 215.83 242.297 211.705C242.297 210.528 242.705 209.567 243.375 208.817C243.267 208.545 242.906 207.448 243.478 205.967C243.555 205.949 243.634 205.941 243.712 205.944C244.092 205.944 244.95 206.089 246.366 207.073C248.086 206.592 249.905 206.592 251.625 207.073C253.041 206.089 253.898 205.944 254.278 205.944C254.357 205.941 254.436 205.949 254.512 205.967C255.084 207.448 254.723 208.545 254.616 208.817C255.286 209.572 255.694 210.533 255.694 211.705C255.694 215.839 253.238 216.748 250.898 217.016C251.273 217.348 251.611 218.005 251.611 219.008C251.611 220.447 251.597 221.609 251.597 221.961C251.597 222.214 251.742 222.5 252.131 222.5C252.194 222.5 252.257 222.494 252.319 222.481C256.495 221.056 259.5 217.02 259.5 212.267C259.5 206.323 254.798 201.5 249 201.5C243.202 201.5 238.5 206.323 238.5 212.267Z" stroke="#58A399" stroke-opacity="0.500000" stroke-width="0.500000"/>
		</g>
	</g>
</svg>
