<svg width="32" height="18" viewBox="0 0 32 18" fill="none" xmlns="http://www.w3.org/2000/svg">
<g clip-path="url(#clip0_1_2)">
<path d="M10.5756 17.8833L12.8576 15.6002H6.40009V9.14219L4.11768 11.4252V17.8833H10.5756Z" fill="#FCAF16"/>
<path d="M15.5429 -2.12002e-06L13.261 2.28217H19.7187V8.7397L22.001 6.45704V-2.12002e-06H15.5429Z" fill="#FCAF16"/>
<mask id="mask0_1_2" style="mask-type:luminance" maskUnits="userSpaceOnUse" x="-37" y="-28" width="106" height="74">
<path d="M-36.0558 -27.9898H68.0703V45.6348H-36.0558V-27.9898Z" fill="white"/>
</mask>
<g mask="url(#mask0_1_2)">
<path d="M3.55411 3.39304H0V3.52612C0.000494726 3.52687 0.00111323 3.52736 0.001979 3.52773H0.000123614C0.32219 3.94095 0.516246 4.33426 0.525028 5.01401V13.9648C0.52948 14.0488 0.552856 14.1018 0.62657 14.1363C0.723907 14.182 0.79824 14.1377 0.932063 14.0042L3.02908 11.9072V4.9962C3.04108 4.32721 3.23464 3.93749 3.55411 3.52773H3.55188C3.5525 3.52736 3.55324 3.52687 3.55411 3.52612V3.39304Z" fill="#01499A"/>
<path d="M32 3.39304H28.4445V3.52612C28.4451 3.52686 28.446 3.52736 28.4464 3.52773C28.7577 3.92734 28.9499 4.3068 28.9702 4.94573V10.3112C28.9702 11.3885 28.0972 12.262 27.0201 12.262C25.9436 12.262 25.0701 11.3885 25.0701 10.3112V3.94095C25.0701 3.81578 25.0654 3.68728 24.9672 3.65252C24.867 3.61579 24.812 3.64634 24.6794 3.77967V3.77892L22.5657 5.89264V10.1352C22.5657 12.5952 24.5603 14.5888 27.0201 14.5888C29.4804 14.5888 31.4746 12.5952 31.4746 10.1352V5.04666C31.4772 4.346 31.673 3.94775 32 3.52773H31.9981C31.9988 3.52736 31.9994 3.52686 32 3.52612V3.39304Z" fill="#01499A"/>
<path d="M18.0775 3.39304H14.5221V3.52612C14.5234 3.52686 14.5239 3.52735 14.5243 3.52772H14.5221C14.8497 3.94775 15.0453 4.346 15.0482 5.04666V9.6711L11.5314 4.01157L8.64382 6.89953V12.7468V12.7466C8.64382 13.4569 8.44729 13.857 8.11768 14.2802V14.4134H11.6724V14.2802C11.6717 14.2802 11.6714 14.2798 11.6708 14.2794C11.3539 13.8722 11.1607 13.4853 11.1469 12.8237V8.13597L14.6631 13.7953L17.5511 10.9067V5.01957C17.5585 4.33611 17.7531 3.94243 18.0763 3.52772H18.0758C18.0763 3.52735 18.0768 3.52686 18.0775 3.52612V3.39304Z" fill="#01499A"/>
</g>
</g>
<defs>
<clipPath id="clip0_1_2">
<rect width="32" height="17.8833" fill="white"/>
</clipPath>
</defs>
</svg>
