<svg width="400.000000" height="400.000000" viewBox="0 0 400 400" fill="none" xmlns="http://www.w3.org/2000/svg" xmlns:xlink="http://www.w3.org/1999/xlink">
	<desc>
			Created with Pixso.
	</desc>
	<defs>
		<clipPath id="clip4_78">
			<rect id="logo-github" width="24.000000" height="24.000000" transform="translate(233.000000 200.000000)" fill="white" fill-opacity="0"/>
		</clipPath>
		<clipPath id="clip4_1">
			<rect id="画板 1" width="400.000000" height="400.000000" fill="white" fill-opacity="0"/>
		</clipPath>
	</defs>
	<rect id="画板 1" width="400.000000" height="400.000000" fill="#FFFFFF" fill-opacity="0"/>
	<g clip-path="url(#clip4_1)">
		<path id="直线 1" d="M258.57 172.384L198.57 172.384" stroke="#496989" stroke-opacity="1.000000" stroke-width="8.000000" stroke-linecap="round"/>
		<g opacity="0.940000">
			<path id="Vector" d="M298.444 185.662C298.265 187.175 298.056 188.682 297.818 190.184C296.864 196.208 295.438 202.139 293.559 207.922C289.812 219.453 284.261 230.398 277.045 240.328C262.615 260.188 242.268 274.97 218.92 282.556C195.572 290.141 170.422 290.14 147.074 282.554C123.727 274.967 103.38 260.184 88.9507 240.323C74.5213 220.462 66.7498 196.543 66.75 171.993C66.7502 147.444 74.522 123.525 88.9517 103.664C103.381 83.8036 123.728 69.0207 147.076 61.4343C152.894 59.5436 158.825 58.1241 164.812 57.1758C170.836 56.2216 176.917 55.7444 182.998 55.7443C186.041 55.7443 189.084 55.8637 192.12 56.1025" stroke="#3E5F80" stroke-opacity="1.000000" stroke-width="10.000000" stroke-linejoin="round" stroke-linecap="round"/>
		</g>
		<path id="Vector" d="M140 102L190 137L140 172" stroke="#496989" stroke-opacity="1.000000" stroke-width="10.000000" stroke-linejoin="round" stroke-linecap="round" stroke-dasharray="0 0"/>
		<path id="CYHooo" d="M127.111 234.918Q129.633 233.222 130.855 231.104Q131.365 230.233 131.365 229.768Q131.365 229.539 131.25 229.423Q131.132 229.302 130.89 229.302Q130.864 229.302 130.837 229.303Q130.4 229.332 129.994 229.838Q128.877 231.314 127.181 232.466Q125.494 233.617 123.657 234.25Q121.82 234.883 119.71 234.883Q118.996 234.883 118.299 234.77Q116.949 234.551 115.667 233.907Q114.402 233.292 113.523 232.325Q111.528 230.129 111.528 226.12Q111.528 220.98 113.944 217.534Q114.246 217.103 114.586 216.698Q116.285 214.626 118.463 213.76Q120.027 213.139 121.837 213.139Q125.518 213.139 127.266 214.977Q127.58 215.307 127.831 215.696Q127.923 215.829 128.05 215.906Q128.224 216.013 128.464 216.013Q128.877 216.013 129.343 215.406Q129.818 214.791 129.818 214.413Q129.818 214.035 129.703 213.895Q129.379 213.506 129.009 213.168Q126.466 210.836 121.785 210.836Q119.826 210.836 118.066 211.427Q117.37 211.661 116.704 211.987Q116.092 212.289 115.519 212.654Q113.908 213.682 112.618 215.213Q110.877 217.278 109.902 220.029Q108.935 222.78 108.935 226.349Q108.935 229.908 110.376 232.378Q111.254 233.882 112.523 234.897Q113.338 235.549 114.314 235.999Q116.819 237.15 119.948 237.15Q122.105 237.15 124.036 236.489Q125.653 235.935 127.111 234.918ZM141.696 232.615L141.626 235.814Q141.626 235.895 141.647 235.97Q141.746 236.328 142.32 236.553Q143.023 236.825 143.709 236.825Q144.246 236.825 144.362 236.604Q144.394 236.543 144.394 236.465L144.289 232.65L144.289 225.953Q144.614 225.338 145.37 224.081Q150.582 215.371 153.289 212.093Q153.359 211.952 153.359 211.908L153.359 211.904Q153.355 211.59 152.691 211.284Q152.023 210.977 151.373 210.977Q150.809 210.977 150.571 211.255Q150.538 211.293 150.511 211.337Q150.046 212.198 148.121 215.266Q146.196 218.324 142.988 223.536Q142.183 222.131 141.35 220.743Q140.692 219.647 140.017 218.562Q138.488 216.092 137.609 214.65Q136.73 213.209 136.405 212.585Q136.08 211.952 135.79 211.478Q135.649 211.267 134.964 211.267Q134.763 211.267 134.564 211.284Q134.083 211.326 133.61 211.469Q133.052 211.63 132.96 211.933Q132.942 211.993 132.942 212.058Q132.942 212.163 133.232 212.523Q133.522 212.884 134.278 213.965Q138.242 219.722 141.696 225.988L141.696 232.615ZM173.518 232.65L173.447 235.85Q173.447 235.944 173.474 236.03Q173.582 236.377 174.124 236.588Q174.81 236.86 175.478 236.86Q175.995 236.86 176.112 236.644Q176.146 236.581 176.146 236.5L176.04 232.686L176.04 215.336L176.111 212.128Q176.111 212.041 176.087 211.961Q175.986 211.611 175.443 211.39Q174.883 211.161 174.31 211.124Q174.2 211.117 174.089 211.117Q173.562 211.117 173.445 211.336Q173.412 211.398 173.412 211.478L173.518 215.292L173.518 221.884Q173.239 221.146 172.806 221.04Q172.733 221.022 172.656 221.022L172.542 221.022Q172.111 221.093 171.25 221.163Q170.389 221.233 169.554 221.304L160.519 221.849L160.343 221.849L160.343 215.336L160.413 212.128Q160.413 212.041 160.39 211.961Q160.289 211.611 159.745 211.39Q159.245 211.183 158.73 211.133Q158.566 211.117 158.401 211.117Q157.863 211.117 157.747 211.338Q157.715 211.4 157.715 211.478L157.82 215.292L157.82 221.849L156.81 221.813L156.775 221.813Q156.649 221.813 156.563 221.872Q156.379 221.998 156.379 222.394Q156.379 222.965 156.722 223.633Q157.021 224.208 157.414 224.281Q157.471 224.292 157.53 224.292L157.574 224.292Q157.715 224.292 157.82 224.257L157.82 232.686L157.75 235.885Q157.75 235.977 157.776 236.061Q157.884 236.411 158.436 236.623Q159.121 236.896 159.78 236.896Q160.298 236.896 160.414 236.679Q160.448 236.616 160.448 236.535L160.343 232.721L160.343 223.976L160.554 223.976L170.424 223.396L173.298 223.501L173.518 223.466L173.518 232.65ZM189.592 219.044Q187.832 219.254 186.193 220.478Q186.036 220.277 185.833 220.2Q185.706 220.152 185.56 220.152Q185.183 220.152 184.462 220.952Q183.741 221.743 183.02 223.035Q181.219 226.164 181.219 229.047Q181.219 232.459 182.875 234.572Q183.037 234.777 183.214 234.971Q183.505 235.288 183.834 235.558Q185.77 237.15 189.015 237.15Q190.845 237.15 192.347 236.448Q193.96 235.693 195.193 234.127Q196.155 232.93 196.703 231.567Q197.426 229.767 197.426 227.676Q197.426 223.273 195.226 220.996Q194.712 220.463 194.077 220.047Q193.87 219.911 193.653 219.792Q192.205 219.001 190.324 219.001Q189.956 219.001 189.592 219.044ZM209.824 219.044Q208.064 219.254 206.425 220.478Q206.268 220.277 206.065 220.2Q205.938 220.152 205.792 220.152Q205.415 220.152 204.694 220.952Q203.973 221.743 203.252 223.035Q201.451 226.164 201.451 229.047Q201.451 232.459 203.107 234.572Q203.269 234.777 203.446 234.971Q203.737 235.288 204.066 235.558Q206.002 237.15 209.247 237.15Q211.077 237.15 212.579 236.448Q214.192 235.693 215.425 234.127Q216.387 232.93 216.935 231.567Q217.658 229.767 217.658 227.676Q217.658 223.273 215.458 220.996Q214.944 220.463 214.309 220.047Q214.102 219.911 213.885 219.792Q212.437 219.001 210.556 219.001Q210.188 219.001 209.824 219.044ZM230.056 219.044Q228.296 219.254 226.657 220.478Q226.5 220.277 226.297 220.2Q226.17 220.152 226.024 220.152Q225.647 220.152 224.926 220.952Q224.205 221.743 223.484 223.035Q221.683 226.164 221.683 229.047Q221.683 232.459 223.339 234.572Q223.501 234.777 223.678 234.971Q223.969 235.288 224.298 235.558Q226.234 237.15 229.479 237.15Q231.309 237.15 232.811 236.448Q234.424 235.693 235.657 234.127Q236.619 232.93 237.167 231.567Q237.89 229.767 237.89 227.676Q237.89 223.273 235.69 220.996Q235.176 220.463 234.541 220.047Q234.334 219.911 234.117 219.792Q232.669 219.001 230.788 219.001Q230.42 219.001 230.056 219.044ZM190.876 234.582Q189.921 234.953 188.821 234.953Q186.827 234.953 185.562 233.993Q185.249 233.755 184.98 233.459Q183.636 231.965 183.636 229.029Q183.636 227.952 183.89 226.938Q184.329 225.191 185.525 223.633Q186.863 221.884 188.571 221.374Q189.276 221.163 190.043 221.163Q191.962 221.163 193.103 222.105Q193.525 222.453 193.84 222.93Q193.859 222.958 193.877 222.987Q195.009 224.737 195.009 227.219Q195.009 229.732 194.183 231.394Q193.476 232.806 192.359 233.711Q192.169 233.865 191.968 234.004Q191.448 234.359 190.876 234.582ZM211.108 234.582Q210.153 234.953 209.053 234.953Q207.059 234.953 205.794 233.993Q205.481 233.755 205.212 233.459Q203.868 231.965 203.868 229.029Q203.868 227.952 204.122 226.938Q204.561 225.191 205.757 223.633Q207.095 221.884 208.803 221.374Q209.508 221.163 210.275 221.163Q212.194 221.163 213.335 222.105Q213.757 222.453 214.072 222.93Q214.091 222.958 214.109 222.987Q215.241 224.737 215.241 227.219Q215.241 229.732 214.415 231.394Q213.708 232.806 212.591 233.711Q212.401 233.865 212.2 234.004Q211.68 234.359 211.108 234.582ZM231.34 234.582Q230.385 234.953 229.285 234.953Q227.291 234.953 226.026 233.993Q225.713 233.755 225.444 233.459Q224.1 231.965 224.1 229.029Q224.1 227.952 224.354 226.938Q224.793 225.191 225.989 223.633Q227.327 221.884 229.035 221.374Q229.74 221.163 230.507 221.163Q232.426 221.163 233.567 222.105Q233.989 222.453 234.304 222.93Q234.323 222.958 234.341 222.987Q235.473 224.737 235.473 227.219Q235.473 229.732 234.647 231.394Q233.94 232.806 232.823 233.711Q232.633 233.865 232.432 234.004Q231.912 234.359 231.34 234.582Z" fill="#3E5F80" fill-opacity="1.000000" fill-rule="evenodd"/>
		<path id="CYHooo" d="M130.855 231.104C130.04 232.516 128.792 233.787 127.111 234.918C124.978 236.406 122.59 237.15 119.948 237.15C117.862 237.15 115.984 236.767 114.314 235.999C112.65 235.231 111.337 234.024 110.376 232.378C109.415 230.731 108.935 228.722 108.935 226.349C108.935 223.97 109.257 221.863 109.902 220.029C110.552 218.195 111.457 216.59 112.618 215.213C113.784 213.83 115.146 212.755 116.704 211.987C118.269 211.22 119.962 210.836 121.785 210.836C125.359 210.836 127.998 211.855 129.703 213.895C129.78 213.988 129.818 214.161 129.818 214.413C129.818 214.665 129.66 214.996 129.343 215.406C129.033 215.811 128.74 216.013 128.464 216.013C128.189 216.013 127.978 215.907 127.831 215.696C126.73 213.991 124.732 213.139 121.837 213.139C118.949 213.139 116.532 214.325 114.586 216.698C112.547 219.124 111.528 222.265 111.528 226.12C111.528 229.97 112.908 232.565 115.667 233.907C116.962 234.558 118.31 234.883 119.71 234.883C121.117 234.883 122.432 234.672 123.657 234.25C124.881 233.828 126.056 233.233 127.181 232.466C128.312 231.698 129.249 230.822 129.994 229.838C130.281 229.48 130.579 229.302 130.89 229.302C131.206 229.302 131.365 229.457 131.365 229.768C131.365 230.078 131.195 230.523 130.855 231.104ZM141.626 235.814L141.696 232.615L141.696 225.988C139.393 221.811 136.921 217.803 134.278 213.965C133.774 213.244 133.426 212.764 133.232 212.523C133.039 212.283 132.942 212.128 132.942 212.058C132.942 211.794 133.165 211.598 133.61 211.469C134.055 211.334 134.507 211.267 134.964 211.267C135.421 211.267 135.696 211.337 135.79 211.478C135.983 211.794 136.188 212.163 136.405 212.585C136.622 213.001 137.023 213.689 137.609 214.65C138.195 215.611 138.998 216.915 140.017 218.562C141.037 220.202 142.027 221.86 142.988 223.536C145.127 220.062 146.838 217.305 148.121 215.266C149.404 213.221 150.201 211.911 150.511 211.337C150.658 211.097 150.945 210.977 151.373 210.977C151.806 210.977 152.246 211.079 152.691 211.284C153.136 211.489 153.359 211.697 153.359 211.908C153.359 211.938 153.336 211.999 153.289 212.093C151.484 214.278 148.844 218.274 145.37 224.081C144.866 224.919 144.506 225.543 144.289 225.953L144.289 232.65L144.394 236.465C144.394 236.705 144.166 236.825 143.709 236.825C143.252 236.825 142.789 236.734 142.32 236.553C141.857 236.371 141.626 236.125 141.626 235.814ZM173.447 235.85L173.518 232.65L173.518 223.466L173.298 223.501L170.424 223.396L160.554 223.976L160.343 223.976L160.343 232.721L160.448 236.535C160.448 236.775 160.226 236.896 159.78 236.896C159.341 236.896 158.893 236.805 158.436 236.623C157.979 236.447 157.75 236.201 157.75 235.885L157.82 232.686L157.82 224.257C157.75 224.28 157.668 224.292 157.574 224.292L157.53 224.292C157.22 224.292 156.95 224.072 156.722 223.633C156.493 223.188 156.379 222.774 156.379 222.394C156.379 222.007 156.511 221.813 156.775 221.813L156.81 221.813L157.82 221.849L157.82 215.292L157.715 211.478C157.715 211.237 157.944 211.117 158.401 211.117C158.858 211.117 159.306 211.208 159.745 211.39C160.191 211.571 160.413 211.817 160.413 212.128L160.343 215.336L160.343 221.849L160.519 221.849L169.554 221.304C170.111 221.257 170.676 221.21 171.25 221.163C171.824 221.116 172.255 221.069 172.542 221.022L172.656 221.022C173.014 221.022 173.301 221.31 173.518 221.884L173.518 215.292L173.412 211.478C173.412 211.237 173.638 211.117 174.089 211.117C174.546 211.117 174.997 211.208 175.443 211.39C175.888 211.571 176.111 211.817 176.111 212.128L176.04 215.336L176.04 232.686L176.146 236.5C176.146 236.74 175.923 236.86 175.478 236.86C175.032 236.86 174.581 236.77 174.124 236.588C173.673 236.412 173.447 236.166 173.447 235.85ZM188.821 234.953C189.993 234.953 191.042 234.637 191.968 234.004C192.893 233.365 193.632 232.495 194.183 231.394C194.733 230.286 195.009 228.895 195.009 227.219C195.009 225.537 194.619 224.107 193.84 222.93C193.06 221.752 191.795 221.163 190.043 221.163C188.291 221.163 186.785 221.986 185.525 223.633C184.266 225.273 183.636 227.072 183.636 229.029C183.636 230.986 184.084 232.463 184.98 233.459C185.883 234.455 187.163 234.953 188.821 234.953ZM186.193 220.478C187.512 219.493 188.889 219.001 190.324 219.001C191.766 219.001 193.017 219.35 194.077 220.047C196.31 221.512 197.426 224.055 197.426 227.676C197.426 230.125 196.682 232.275 195.193 234.127C193.605 236.143 191.546 237.15 189.015 237.15C186.483 237.15 184.55 236.424 183.214 234.971C181.884 233.518 181.219 231.543 181.219 229.047C181.219 227.125 181.819 225.121 183.02 223.035C183.501 222.174 183.981 221.479 184.462 220.952C184.942 220.419 185.309 220.152 185.56 220.152C185.812 220.152 186.023 220.261 186.193 220.478ZM209.053 234.953C210.225 234.953 211.274 234.637 212.2 234.004C213.126 233.365 213.864 232.495 214.415 231.394C214.965 230.286 215.241 228.895 215.241 227.219C215.241 225.537 214.851 224.107 214.072 222.93C213.292 221.752 212.027 221.163 210.275 221.163C208.523 221.163 207.017 221.986 205.757 223.633C204.498 225.273 203.868 227.072 203.868 229.029C203.868 230.986 204.316 232.463 205.212 233.459C206.115 234.455 207.395 234.953 209.053 234.953ZM206.425 220.478C207.744 219.493 209.121 219.001 210.556 219.001C211.998 219.001 213.249 219.35 214.309 220.047C216.542 221.512 217.658 224.055 217.658 227.676C217.658 230.125 216.914 232.275 215.425 234.127C213.837 236.143 211.778 237.15 209.247 237.15C206.715 237.15 204.782 236.424 203.446 234.971C202.116 233.518 201.451 231.543 201.451 229.047C201.451 227.125 202.051 225.121 203.252 223.035C203.733 222.174 204.213 221.479 204.694 220.952C205.174 220.419 205.541 220.152 205.792 220.152C206.044 220.152 206.255 220.261 206.425 220.478ZM229.285 234.953C230.457 234.953 231.506 234.637 232.432 234.004C233.357 233.365 234.096 232.495 234.647 231.394C235.197 230.286 235.473 228.895 235.473 227.219C235.473 225.537 235.083 224.107 234.304 222.93C233.524 221.752 232.259 221.163 230.507 221.163C228.755 221.163 227.249 221.986 225.989 223.633C224.73 225.273 224.1 227.072 224.1 229.029C224.1 230.986 224.548 232.463 225.444 233.459C226.347 234.455 227.627 234.953 229.285 234.953ZM226.657 220.478C227.976 219.493 229.353 219.001 230.788 219.001C232.23 219.001 233.481 219.35 234.541 220.047C236.774 221.512 237.89 224.055 237.89 227.676C237.89 230.125 237.146 232.275 235.657 234.127C234.069 236.143 232.01 237.15 229.479 237.15C226.947 237.15 225.014 236.424 223.678 234.971C222.348 233.518 221.683 231.543 221.683 229.047C221.683 227.125 222.283 225.121 223.484 223.035C223.965 222.174 224.445 221.479 224.926 220.952C225.406 220.419 225.773 220.152 226.024 220.152C226.276 220.152 226.487 220.261 226.657 220.478Z" stroke="#58A399" stroke-opacity="0.501961" stroke-width="0.500000"/>
		<path id="Vector" d="M199 242.719C196.342 242.719 195 243.18 195 243.75C195 244.32 196.342 244.781 199 244.781L242.188 244.781C244.845 244.781 247 244.32 247 243.75C247 243.18 244.845 242.719 242.188 242.719L199 242.719ZM181.812 247.219C179.155 247.219 177 247.68 177 248.25C177 248.82 179.155 249.281 181.812 249.281L242.188 249.281C244.845 249.281 247 248.82 247 248.25C247 247.68 244.845 247.219 242.188 247.219L181.812 247.219Z" fill="#496989" fill-opacity="1.000000" fill-rule="evenodd"/>
		<path id="Vector" d="M177 248.25C177 248.82 179.155 249.281 181.812 249.281L242.188 249.281C244.845 249.281 247 248.82 247 248.25C247 247.68 244.845 247.219 242.188 247.219L181.812 247.219C179.155 247.219 177 247.68 177 248.25ZM195 243.75C195 244.32 196.342 244.781 199 244.781L242.188 244.781C244.845 244.781 247 244.32 247 243.75C247 243.18 244.845 242.719 242.188 242.719L199 242.719C196.342 242.719 195 243.18 195 243.75Z" stroke="#58A399" stroke-opacity="0.500000" stroke-width="0.500000"/>
		<g clip-path="url(#clip4_78)">
			<path id="Vector" d="M245 201.5C239.202 201.5 234.5 206.323 234.5 212.267C234.5 217.025 237.509 221.056 241.681 222.481C241.74 222.494 241.799 222.5 241.859 222.5C242.248 222.5 242.398 222.214 242.398 221.966C242.398 221.708 242.389 221.033 242.384 220.133C242.037 220.214 241.682 220.257 241.325 220.259C239.305 220.259 238.845 218.689 238.845 218.689C238.367 217.447 237.678 217.114 237.678 217.114C236.764 216.472 237.673 216.453 237.744 216.453L237.748 216.453C238.803 216.547 239.356 217.569 239.356 217.569C239.881 218.488 240.584 218.745 241.212 218.745C241.628 218.737 242.037 218.641 242.413 218.464C242.506 217.77 242.778 217.297 243.078 217.025C240.748 216.753 238.297 215.83 238.297 211.705C238.297 210.528 238.705 209.567 239.375 208.817C239.267 208.545 238.906 207.448 239.478 205.967C239.555 205.949 239.634 205.941 239.712 205.944C240.092 205.944 240.95 206.089 242.366 207.073C244.086 206.592 245.905 206.592 247.625 207.073C249.041 206.089 249.898 205.944 250.278 205.944C250.357 205.941 250.436 205.949 250.512 205.967C251.084 207.448 250.723 208.545 250.616 208.817C251.286 209.572 251.694 210.533 251.694 211.705C251.694 215.839 249.238 216.748 246.898 217.016C247.273 217.348 247.611 218.005 247.611 219.008C247.611 220.447 247.597 221.609 247.597 221.961C247.597 222.214 247.742 222.5 248.131 222.5C248.194 222.5 248.257 222.494 248.319 222.481C252.495 221.056 255.5 217.02 255.5 212.267C255.5 206.323 250.798 201.5 245 201.5Z" fill="#496989" fill-opacity="1.000000" fill-rule="nonzero"/>
			<path id="Vector" d="M234.5 212.267C234.5 217.025 237.509 221.056 241.681 222.481C241.74 222.494 241.799 222.5 241.859 222.5C242.248 222.5 242.398 222.214 242.398 221.966C242.398 221.708 242.389 221.033 242.384 220.133C242.037 220.214 241.682 220.257 241.325 220.259C239.305 220.259 238.845 218.689 238.845 218.689C238.367 217.447 237.678 217.114 237.678 217.114C236.764 216.472 237.673 216.453 237.744 216.453L237.748 216.453C238.803 216.547 239.356 217.569 239.356 217.569C239.881 218.488 240.584 218.745 241.212 218.745C241.628 218.737 242.037 218.641 242.413 218.464C242.506 217.77 242.778 217.297 243.078 217.025C240.748 216.753 238.297 215.83 238.297 211.705C238.297 210.528 238.705 209.567 239.375 208.817C239.267 208.545 238.906 207.448 239.478 205.967C239.555 205.949 239.634 205.941 239.712 205.944C240.092 205.944 240.95 206.089 242.366 207.073C244.086 206.592 245.905 206.592 247.625 207.073C249.041 206.089 249.898 205.944 250.278 205.944C250.357 205.941 250.436 205.949 250.512 205.967C251.084 207.448 250.723 208.545 250.616 208.817C251.286 209.572 251.694 210.533 251.694 211.705C251.694 215.839 249.238 216.748 246.898 217.016C247.273 217.348 247.611 218.005 247.611 219.008C247.611 220.447 247.597 221.609 247.597 221.961C247.597 222.214 247.742 222.5 248.131 222.5C248.194 222.5 248.257 222.494 248.319 222.481C252.495 221.056 255.5 217.02 255.5 212.267C255.5 206.323 250.798 201.5 245 201.5C239.202 201.5 234.5 206.323 234.5 212.267Z" stroke="#58A399" stroke-opacity="0.500000" stroke-width="0.500000"/>
		</g>
	</g>
</svg>
